<?xml version="1.0" encoding="UTF-8" standalone="no"?>
<!DOCTYPE svg PUBLIC "-//W3C//DTD SVG 1.1//EN" "http://www.w3.org/Graphics/SVG/1.1/DTD/svg11.dtd">
<!-- Created with Vectornator (http://vectornator.io/) -->
<svg height="100%" stroke-miterlimit="10" style="fill-rule:nonzero;clip-rule:evenodd;stroke-linecap:round;stroke-linejoin:round;" version="1.1" viewBox="0 0 100 100" width="100%" xml:space="preserve" xmlns="http://www.w3.org/2000/svg" xmlns:vectornator="http://vectornator.io" xmlns:xlink="http://www.w3.org/1999/xlink">
<defs>
<clipPath id="TextBounds">
<rect height="25" width="119.328" x="4.17774" y="26.4693"/>
</clipPath>
<clipPath id="TextBounds_2">
<rect height="25" width="119.328" x="4.2442" y="52.5828"/>
</clipPath>
</defs>
<g id="レイヤー-1" vectornator:layerName="レイヤー 1">
<g fill="#595959" opacity="1" stroke="none">
<path clip-path="url(#TextBounds)" d="M17.5817 40.6613C17.3577 40.2293 16.9577 39.3653 16.8297 39.0773C15.2457 35.3333 14.9417 34.8853 13.9337 34.5653C14.8457 34.3093 15.2617 34.1013 15.7097 33.6373C16.2537 33.0773 16.5257 32.2773 16.5257 31.2533C16.5257 29.1413 15.1337 27.9253 12.7017 27.9253L8.86174 27.9253C7.98174 27.9253 7.48574 27.9093 6.81374 27.8773C6.90974 28.6293 6.94174 29.1093 6.94174 29.9573L6.94174 38.5813C6.94174 39.5573 6.90974 39.9893 6.81374 40.6613L9.19774 40.6613C9.10174 40.0373 9.06974 39.5253 9.06974 38.5653L9.06974 35.3013L11.4537 35.3013C12.6857 35.3013 13.2457 35.8933 14.1097 38.1013C14.6377 39.4613 14.9097 40.2773 14.9417 40.6613L17.5817 40.6613ZM9.06974 33.4773L9.06974 29.7493L12.3497 29.7493C13.6617 29.7493 14.3177 30.3413 14.3177 31.4933C14.3177 32.1013 14.1417 32.5653 13.8057 32.9013C13.4377 33.2693 12.8777 33.4773 12.2857 33.4773L9.06974 33.4773Z" fill-rule="evenodd"/>
<path clip-path="url(#TextBounds)" d="M27.6457 36.5973C27.6137 36.2293 27.6137 36.1813 27.6137 36.1493C27.5657 35.0613 27.4537 34.4853 27.1497 33.7173C26.5097 32.1173 25.0377 31.1893 23.1657 31.1893C20.4297 31.1893 18.6537 33.1253 18.6537 36.0853C18.6537 39.0773 20.4457 40.9653 23.2777 40.9653C24.6217 40.9653 25.7417 40.5493 26.5737 39.7333C26.9737 39.3333 27.1817 39.0293 27.5497 38.2613L25.6617 37.6533C25.5017 38.0853 25.3897 38.2613 25.1977 38.4853C24.7337 38.9973 24.0617 39.2853 23.2777 39.2853C22.4617 39.2853 21.7417 38.9653 21.2777 38.3893C20.9097 37.9253 20.7657 37.4773 20.6857 36.5973L27.6457 36.5973ZM20.7337 35.0133C20.9737 33.6693 21.8857 32.8373 23.1337 32.8373C23.8857 32.8373 24.4297 33.0453 24.8617 33.4773C25.2617 33.8773 25.4537 34.3093 25.5657 35.0133L20.7337 35.0133Z" fill-rule="evenodd"/>
<path clip-path="url(#TextBounds)" d="M37.5657 34.0853C37.3417 33.4933 37.2137 33.2373 37.0057 32.9173C36.2377 31.7973 34.9897 31.1893 33.4217 31.1893C32.1097 31.1893 30.9897 31.6053 30.2057 32.4053C29.3257 33.3013 28.8457 34.5973 28.8457 36.1013C28.8457 39.0613 30.6697 40.9653 33.4857 40.9653C35.0057 40.9653 36.2377 40.4053 37.0057 39.3493C37.2937 38.9653 37.4537 38.6293 37.6777 37.9893L35.6937 37.5893C35.5977 37.9893 35.5177 38.1653 35.3737 38.3893C34.9737 38.9653 34.3337 39.2853 33.5337 39.2853C31.9177 39.2853 30.9257 38.0533 30.9257 36.0533C30.9257 34.0693 31.9017 32.8373 33.4697 32.8373C34.1737 32.8373 34.7337 33.0933 35.1177 33.5733C35.3257 33.8293 35.4377 34.0533 35.6137 34.5493L37.5657 34.0853Z" fill-rule="evenodd"/>
<path clip-path="url(#TextBounds)" d="M45.6937 31.4773C45.7737 32.1653 45.8217 32.7733 45.8217 33.5573L45.8217 36.7893C45.1017 38.3733 44.1897 39.1573 43.0377 39.1573C42.7337 39.1573 42.3977 39.0613 42.1577 38.9333C41.6617 38.6293 41.4217 38.0373 41.4217 37.1093L41.4217 33.5573C41.4217 32.7413 41.4377 32.1973 41.5337 31.4773L39.2137 31.4773C39.2937 32.0693 39.3417 32.6773 39.3417 33.5573L39.3417 37.6053C39.3417 38.9173 39.7577 39.8133 40.6377 40.3733C41.1657 40.6933 41.7417 40.8373 42.5577 40.8373C44.0777 40.8373 44.9577 40.3733 45.8377 39.1253C45.8217 39.5253 45.8217 39.5733 45.8217 39.8133L45.8217 40.6613L47.9977 40.6613C47.9017 40.0053 47.8697 39.4613 47.8697 38.5813L47.8697 33.5573C47.8697 32.6613 47.8857 32.1653 47.9977 31.4773L45.6937 31.4773Z" fill-rule="evenodd"/>
<path clip-path="url(#TextBounds)" d="M56.7017 31.4773C55.9817 31.3493 55.5977 31.3013 55.2137 31.3013C53.7737 31.3013 52.7817 31.8453 52.2057 32.9813L52.2057 31.4773L50.0297 31.4773C50.1257 32.1333 50.1417 32.5813 50.1417 33.5573L50.1417 38.5813C50.1417 39.4133 50.1097 39.8773 50.0297 40.6613L52.3177 40.6613C52.2377 39.9093 52.2057 39.4453 52.2057 38.5813L52.2057 35.6213C52.3017 34.8533 52.4617 34.4853 52.8617 34.0213C53.3097 33.4933 53.9177 33.2373 54.7177 33.2373C55.1337 33.2373 55.4697 33.3013 56.1417 33.4933L56.7017 31.4773Z" fill-rule="evenodd"/>
<path clip-path="url(#TextBounds)" d="M57.4697 38.0533C57.6617 38.7733 57.8057 39.0933 58.0937 39.4773C58.7817 40.4053 60.0137 40.9013 61.6617 40.9013C63.1177 40.9013 64.2377 40.5493 64.9737 39.8613C65.4537 39.4133 65.7577 38.7093 65.7577 38.0533C65.7577 37.1733 65.4537 36.5173 64.8297 36.0693C64.3017 35.6693 63.6457 35.4453 62.0137 35.0933C61.1017 34.8853 60.7657 34.7893 60.4137 34.6133C60.0937 34.4373 59.9177 34.1653 59.9177 33.8613C59.9177 33.1893 60.5897 32.7413 61.5817 32.7413C62.6217 32.7413 63.1657 33.1253 63.3417 34.0053L65.4537 33.7333C65.2297 32.9493 65.0057 32.5493 64.5897 32.1493C63.9337 31.5413 62.8937 31.2213 61.5817 31.2213C60.1257 31.2213 59.0377 31.6373 58.3817 32.4693C58.0617 32.8693 57.8857 33.3973 57.8857 33.9573C57.8857 34.8853 58.3817 35.6533 59.2937 36.0853C59.8377 36.3413 60.3337 36.5013 61.5977 36.7733C62.8777 37.0613 62.9737 37.0773 63.2777 37.2853C63.5337 37.4613 63.6937 37.7653 63.6937 38.0853C63.6937 38.8373 62.9577 39.3013 61.7737 39.3013C60.5257 39.3013 59.9337 38.8693 59.6617 37.7813L57.4697 38.0533Z" fill-rule="evenodd"/>
<path clip-path="url(#TextBounds)" d="M67.3577 27.9253L67.3577 29.9573L69.7097 29.9573L69.7097 27.9253L67.3577 27.9253ZM67.3577 31.4773C67.4537 32.1333 67.4857 32.6773 67.4857 33.5573L67.4857 38.5813C67.4857 39.3813 67.4537 39.9413 67.3577 40.6613L69.6937 40.6613C69.6137 39.9893 69.5817 39.4453 69.5817 38.5653L69.5817 33.5733C69.5817 32.5973 69.6137 32.0693 69.6937 31.4773L67.3577 31.4773Z" fill-rule="evenodd"/>
<path clip-path="url(#TextBounds)" d="M76.8137 40.6613C76.9257 40.1973 76.9737 40.0533 77.2937 39.2373L79.7577 33.1573C80.0617 32.3733 80.2537 31.9253 80.4777 31.4773L78.0457 31.4773C77.9817 31.9253 77.9017 32.2133 77.6457 32.9653L76.0137 37.6053C75.9017 37.9253 75.7737 38.3253 75.6617 38.6773C75.5657 38.3413 75.4217 37.8613 75.3257 37.6053L73.6937 32.9653C73.4857 32.3733 73.3417 31.8293 73.2937 31.4773L70.8457 31.4773C71.1657 32.1493 71.4217 32.7413 71.5977 33.1573L74.0457 39.2373C74.3657 40.0373 74.4297 40.2293 74.5257 40.6613L76.8137 40.6613Z" fill-rule="evenodd"/>
<path clip-path="url(#TextBounds)" d="M90.2377 36.5973C90.2057 36.2293 90.2057 36.1813 90.2057 36.1493C90.1577 35.0613 90.0457 34.4853 89.7417 33.7173C89.1017 32.1173 87.6297 31.1893 85.7577 31.1893C83.0217 31.1893 81.2457 33.1253 81.2457 36.0853C81.2457 39.0773 83.0377 40.9653 85.8697 40.9653C87.2137 40.9653 88.3337 40.5493 89.1657 39.7333C89.5657 39.3333 89.7737 39.0293 90.1417 38.2613L88.2537 37.6533C88.0937 38.0853 87.9817 38.2613 87.7897 38.4853C87.3257 38.9973 86.6537 39.2853 85.8697 39.2853C85.0537 39.2853 84.3337 38.9653 83.8697 38.3893C83.5017 37.9253 83.3577 37.4773 83.2777 36.5973L90.2377 36.5973ZM83.3257 35.0133C83.5657 33.6693 84.4777 32.8373 85.7257 32.8373C86.4777 32.8373 87.0217 33.0453 87.4537 33.4773C87.8537 33.8773 88.0457 34.3093 88.1577 35.0133L83.3257 35.0133Z" fill-rule="evenodd"/>
</g>
<g fill="#595959" opacity="1" stroke="none">
<path clip-path="url(#TextBounds_2)" d="M13.4402 57.5908C12.7202 57.4628 12.3362 57.4148 11.9522 57.4148C10.5122 57.4148 9.5202 57.9588 8.9442 59.0948L8.9442 57.5908L6.7682 57.5908C6.8642 58.2468 6.8802 58.6948 6.8802 59.6708L6.8802 64.6948C6.8802 65.5268 6.8482 65.9908 6.7682 66.7748L9.0562 66.7748C8.9762 66.0228 8.9442 65.5588 8.9442 64.6948L8.9442 61.7348C9.0402 60.9668 9.2002 60.5988 9.6002 60.1348C10.0482 59.6068 10.6562 59.3508 11.4562 59.3508C11.8722 59.3508 12.2082 59.4148 12.8802 59.6068L13.4402 57.5908Z" fill-rule="evenodd"/>
<path clip-path="url(#TextBounds_2)" d="M23.2162 62.7108C23.1842 62.3428 23.1842 62.2948 23.1842 62.2628C23.1362 61.1748 23.0242 60.5988 22.7202 59.8308C22.0802 58.2308 20.6082 57.3028 18.7362 57.3028C16.0002 57.3028 14.2242 59.2388 14.2242 62.1988C14.2242 65.1908 16.0162 67.0788 18.8482 67.0788C20.1922 67.0788 21.3122 66.6628 22.1442 65.8468C22.5442 65.4468 22.7522 65.1428 23.1202 64.3748L21.2322 63.7668C21.0722 64.1988 20.9602 64.3748 20.7682 64.5988C20.3042 65.1108 19.6322 65.3988 18.8482 65.3988C18.0322 65.3988 17.3122 65.0788 16.8482 64.5028C16.4802 64.0388 16.3362 63.5908 16.2562 62.7108L23.2162 62.7108ZM16.3042 61.1268C16.5442 59.7828 17.4562 58.9508 18.7042 58.9508C19.4562 58.9508 20.0002 59.1588 20.4322 59.5908C20.8322 59.9908 21.0242 60.4228 21.1362 61.1268L16.3042 61.1268Z" fill-rule="evenodd"/>
<path clip-path="url(#TextBounds_2)" d="M27.0562 66.7748C26.9762 66.0388 26.9442 65.5588 26.9442 64.6948L26.9442 61.5268C27.1202 60.7588 27.2802 60.3908 27.6322 59.9268C28.0642 59.3668 28.6082 59.0948 29.2802 59.0948C30.3202 59.0948 30.8322 59.7668 30.8322 61.1108L30.8322 64.6948C30.8322 65.6068 30.8002 66.1028 30.7042 66.7748L33.0082 66.7748C32.9282 66.1188 32.8962 65.5748 32.8962 64.6948L32.8962 61.5268C33.0882 60.5348 33.3442 60.0228 33.9042 59.5428C34.2882 59.2068 34.6882 59.0628 35.2162 59.0628C36.2882 59.0628 36.7842 59.7028 36.7842 61.1108L36.7842 64.6948C36.7842 65.6388 36.7522 66.1188 36.6562 66.7748L38.9922 66.7748C38.8962 66.1188 38.8642 65.5908 38.8642 64.6948L38.8642 60.7428C38.8642 59.6068 38.6402 58.8868 38.1122 58.3108C37.5682 57.7188 36.7362 57.3988 35.7122 57.3988C34.9922 57.3988 34.4482 57.5268 33.9202 57.8148C33.4242 58.0708 33.1202 58.3588 32.5762 59.0788C32.3842 58.5828 32.2562 58.3748 31.9682 58.1188C31.4722 57.6388 30.7682 57.3988 29.9042 57.3988C28.5762 57.3988 27.3922 58.0228 26.9282 58.9988C26.9442 58.7428 26.9442 58.5028 26.9442 58.4068L26.9442 57.5908L24.8002 57.5908C24.8802 58.1988 24.9122 58.6628 24.9122 59.6708L24.9122 64.6948C24.9122 65.5588 24.8802 66.0868 24.8002 66.7748L27.0562 66.7748Z" fill-rule="evenodd"/>
<path clip-path="url(#TextBounds_2)" d="M45.3602 67.0788C48.2082 67.0788 50.0802 65.1268 50.0802 62.1668C50.0802 59.2068 48.2402 57.3188 45.3442 57.3188C42.4322 57.3188 40.5762 59.2228 40.5762 62.1988C40.5762 65.1908 42.4322 67.0788 45.3602 67.0788ZM45.3442 58.9828C47.0402 58.9828 48.0162 60.1668 48.0162 62.2308C48.0162 64.1828 46.9922 65.3828 45.3282 65.3828C43.6642 65.3828 42.6402 64.1668 42.6402 62.1988C42.6402 60.1988 43.6642 58.9828 45.3442 58.9828Z" fill-rule="evenodd"/>
<path clip-path="url(#TextBounds_2)" d="M56.8002 66.7748C56.9122 66.3108 56.9602 66.1668 57.2802 65.3508L59.7442 59.2708C60.0482 58.4868 60.2402 58.0388 60.4642 57.5908L58.0322 57.5908C57.9682 58.0388 57.8882 58.3268 57.6322 59.0788L56.0002 63.7188C55.8882 64.0388 55.7602 64.4388 55.6482 64.7908C55.5522 64.4548 55.4082 63.9748 55.3122 63.7188L53.6802 59.0788C53.4722 58.4868 53.3282 57.9428 53.2802 57.5908L50.8322 57.5908C51.1522 58.2628 51.4082 58.8548 51.5842 59.2708L54.0322 65.3508C54.3522 66.1508 54.4162 66.3428 54.5122 66.7748L56.8002 66.7748Z" fill-rule="evenodd"/>
<path clip-path="url(#TextBounds_2)" d="M70.2242 62.7108C70.1922 62.3428 70.1922 62.2948 70.1922 62.2628C70.1442 61.1748 70.0322 60.5988 69.7282 59.8308C69.0882 58.2308 67.6162 57.3028 65.7442 57.3028C63.0082 57.3028 61.2322 59.2388 61.2322 62.1988C61.2322 65.1908 63.0242 67.0788 65.8562 67.0788C67.2002 67.0788 68.3202 66.6628 69.1522 65.8468C69.5522 65.4468 69.7602 65.1428 70.1282 64.3748L68.2402 63.7668C68.0802 64.1988 67.9682 64.3748 67.7762 64.5988C67.3122 65.1108 66.6402 65.3988 65.8562 65.3988C65.0402 65.3988 64.3202 65.0788 63.8562 64.5028C63.4882 64.0388 63.3442 63.5908 63.2642 62.7108L70.2242 62.7108ZM63.3122 61.1268C63.5522 59.7828 64.4642 58.9508 65.7122 58.9508C66.4642 58.9508 67.0082 59.1588 67.4402 59.5908C67.8402 59.9908 68.0322 60.4228 68.1442 61.1268L63.3122 61.1268Z" fill-rule="evenodd"/>
</g>
</g>
</svg>
